<svg width="96" height="96" viewBox="0 0 96 96" fill="none" xmlns="http://www.w3.org/2000/svg">
  <defs>
    <linearGradient id="caseStroke" x1="22" y1="20" x2="74" y2="76" gradientUnits="userSpaceOnUse">
      <stop stop-color="#00BFFF"/>
      <stop offset="1" stop-color="#004C8E"/>
    </linearGradient>
    <radialGradient id="caseGlow" cx="0" cy="0" r="1" gradientUnits="userSpaceOnUse" gradientTransform="translate(48 48) scale(42)">
      <stop stop-color="#0096FF" stop-opacity="0.5"/>
      <stop offset="1" stop-color="#001020" stop-opacity="0"/>
    </radialGradient>
  </defs>
  <circle cx="48" cy="48" r="44" fill="url(#caseGlow)"/>
  <path d="M38 29.5C38 26.7386 40.2386 24.5 43 24.5H53C55.7614 24.5 58 26.7386 58 29.5V34H67C72.5228 34 77 38.4772 77 44V62C77 67.5228 72.5228 72 67 72H29C23.4772 72 19 67.5228 19 62V44C19 38.4772 23.4772 34 29 34H38V29.5Z" stroke="url(#caseStroke)" stroke-width="5" stroke-linecap="round" stroke-linejoin="round"/>
  <rect x="33" y="45" width="30" height="16" rx="4" stroke="#9DE8FF" stroke-width="4"/>
  <path d="M48 39V58" stroke="#00D4FF" stroke-width="4" stroke-linecap="round"/>
</svg>
