<svg width="96" height="96" viewBox="0 0 96 96" fill="none" xmlns="http://www.w3.org/2000/svg">
  <defs>
    <linearGradient id="caseStroke" x1="28" y1="20" x2="70" y2="78" gradientUnits="userSpaceOnUse">
      <stop stop-color="#24D9FF" />
      <stop offset="1" stop-color="#005AA3" />
    </linearGradient>
    <radialGradient id="caseAura" cx="0" cy="0" r="1" gradientUnits="userSpaceOnUse" gradientTransform="translate(48 48) scale(44)">
      <stop stop-color="#12C4FF" stop-opacity="0.85" />
      <stop offset="1" stop-color="#041B2D" stop-opacity="0" />
    </radialGradient>
    <filter id="caseGlow" x="18" y="12" width="60" height="72" filterUnits="userSpaceOnUse" color-interpolation-filters="sRGB">
      <feGaussianBlur in="SourceGraphic" stdDeviation="1.4" result="blur" />
      <feMerge>
        <feMergeNode in="blur" />
        <feMergeNode in="SourceGraphic" />
      </feMerge>
    </filter>
  </defs>
  <circle cx="48" cy="48" r="44" fill="url(#caseAura)" />
  <g filter="url(#caseGlow)">
    <path d="M32 24H64C69.5228 24 74 28.4772 74 34V62C74 67.5228 69.5228 72 64 72H32C26.4772 72 22 67.5228 22 62V34C22 28.4772 26.4772 24 32 24Z" fill="rgba(4,27,45,0.7)" stroke="url(#caseStroke)" stroke-width="4" />
    <path d="M48 24V72" stroke="#33DAFF" stroke-width="3" stroke-linecap="round" stroke-dasharray="6 8" opacity="0.8" />
    <rect x="29" y="33" width="12" height="10" rx="4" fill="#0B2C4D" stroke="#2BD5FF" stroke-width="2" />
    <rect x="55" y="33" width="12" height="10" rx="4" fill="#0B2C4D" stroke="#2BD5FF" stroke-width="2" />
    <path d="M30 52H42" stroke="#48E4FF" stroke-width="3" stroke-linecap="round" />
    <path d="M54 52H66" stroke="#48E4FF" stroke-width="3" stroke-linecap="round" />
  </g>
</svg>
