<svg width="96" height="96" viewBox="0 0 96 96" fill="none" xmlns="http://www.w3.org/2000/svg">
  <defs>
    <linearGradient id="remoteStroke" x1="32" y1="20" x2="64" y2="80" gradientUnits="userSpaceOnUse">
      <stop stop-color="#00C6FF"/>
      <stop offset="1" stop-color="#004F90"/>
    </linearGradient>
    <radialGradient id="remoteGlow" cx="0" cy="0" r="1" gradientUnits="userSpaceOnUse" gradientTransform="translate(48 48) scale(42)">
      <stop stop-color="#00A4FF" stop-opacity="0.55"/>
      <stop offset="1" stop-color="#001020" stop-opacity="0"/>
    </radialGradient>
  </defs>
  <circle cx="48" cy="48" r="44" fill="url(#remoteGlow)"/>
  <rect x="32" y="20" width="32" height="56" rx="16" stroke="url(#remoteStroke)" stroke-width="5"/>
  <circle cx="48" cy="36" r="8" stroke="#94E5FF" stroke-width="4"/>
  <path d="M48 49C44.134 49 41 52.134 41 56V60C41 63.866 44.134 67 48 67C51.866 67 55 63.866 55 60V56C55 52.134 51.866 49 48 49Z" fill="#00B8FF" fill-opacity="0.25" stroke="#00D4FF" stroke-width="4"/>
  <path d="M38 31C38.7833 28.3814 40.5735 26.1389 43 24.8462" stroke="#00D4FF" stroke-width="3" stroke-linecap="round"/>
  <path d="M58 31C57.2167 28.3814 55.4265 26.1389 53 24.8462" stroke="#00D4FF" stroke-width="3" stroke-linecap="round"/>
</svg>
