<?xml version="1.0" encoding="UTF-8"?>
<svg version="1.1" xmlns="http://www.w3.org/2000/svg" width="500" height="500">
<path d="M0 0 C10.23 0 20.46 0 31 0 C31.144375 3.34125 31.28875 6.6825 31.4375 10.125 C31.53309204 11.68758545 31.53309204 11.68758545 31.63061523 13.28173828 C31.77124869 20.02047862 31.77124869 20.02047862 29.41064453 23.01855469 C27.67196576 24.50885078 25.95010546 25.80336579 24 27 C24.60344064 30.57538577 24.92546091 30.94098989 28 33.375 C31.51620407 36.60519704 31.56609086 39.73200196 31.875 44.375 C31.94356093 46.58266203 31.99394872 48.79128191 32 51 C33.81434634 48.54301039 35.62654531 46.08448741 37.4375 43.625 C37.95376953 42.92632812 38.47003906 42.22765625 39.00195312 41.5078125 C39.49501953 40.8375 39.98808594 40.1671875 40.49609375 39.4765625 C40.95169678 38.85861816 41.4072998 38.24067383 41.87670898 37.60400391 C43.06782233 35.98664761 43.06782233 35.98664761 44 34 C44.66 34 45.32 34 46 34 C46.24621094 33.29101562 46.49242187 32.58203125 46.74609375 31.8515625 C48.15773683 28.64128385 49.94427437 26.16598332 52.0625 23.375 C55.04745648 19.46223997 55.04745648 19.46223997 57 15 C57.66 15 58.32 15 59 15 C59.268125 14.2575 59.53625 13.515 59.8125 12.75 C60.97414695 10.05987021 62.15317174 8.25723454 64 6 C64.89561646 4.46931885 64.89561646 4.46931885 65.80932617 2.90771484 C67.6953503 0.66880905 68.70957898 0.05868701 71.61416626 -0.52825928 C75.00375205 -0.69575437 78.3456037 -0.67355426 81.73828125 -0.5859375 C82.97418503 -0.57744781 84.21008881 -0.56895813 85.48344421 -0.56021118 C88.75735911 -0.5323505 92.02948153 -0.47852254 95.30279541 -0.4119873 C98.64765918 -0.35042726 101.99260124 -0.32368014 105.33789062 -0.29296875 C111.89262583 -0.22684757 118.44616639 -0.12646634 125 0 C124.25563015 3.30604627 123.24346585 5.33542907 121.19140625 8.0546875 C120.32515625 9.21411865 120.32515625 9.21411865 119.44140625 10.39697266 C118.82136719 11.21472168 118.20132813 12.0324707 117.5625 12.875 C116.28177919 14.58796408 115.00183665 16.30151029 113.72265625 18.015625 C113.0898877 18.86060547 112.45711914 19.70558594 111.80517578 20.57617188 C109.33104351 23.89821477 106.90456974 27.25237511 104.5 30.625 C104.09773193 31.18872314 103.69546387 31.75244629 103.28100586 32.33325195 C100.51920817 36.22363825 97.86313864 40.17547851 95.24609375 44.1640625 C93.62681129 46.54983917 91.8249392 48.76951875 90 51 C89.505 51.99 89.505 51.99 89 53 C88.34 53 87.68 53 87 53 C86.34 54.65 85.68 56.3 85 58 C84.34 58 83.68 58 83 58 C82.13149826 60.24875747 82.13149826 60.24875747 82 63 C83.89229266 65.63624434 83.89229266 65.63624434 86 68 C86 68.99 86 69.98 86 71 C86.66 71 87.32 71 88 71 C88 71.66 88 72.32 88 73 C89.485 73.495 89.485 73.495 91 74 C91.70182826 75.31516513 92.35979793 76.65375948 93 78 C94.92556479 80.5894328 96.89165961 83.13907598 98.8984375 85.66601562 C102 89.67891386 102 89.67891386 102 93 C102.66 93 103.32 93 104 93 C105.36116961 94.78233868 106.63623787 96.63051283 107.875 98.5 C112.06930033 104.76275869 116.54625133 110.76753397 121.18896484 116.70507812 C121.68477051 117.35154297 122.18057617 117.99800781 122.69140625 118.6640625 C123.13685791 119.23592285 123.58230957 119.8077832 124.04125977 120.39697266 C125 122 125 122 125 125 C117.73307672 125.0462955 110.46618512 125.08185493 103.19914436 125.10362434 C99.82493006 125.11407142 96.45081648 125.12824725 93.07666016 125.15087891 C89.19951682 125.17504885 85.32251723 125.18646511 81.4453125 125.1953125 C80.23070343 125.20563507 79.01609436 125.21595764 77.76467896 125.22659302 C76.64366791 125.22674408 75.52265686 125.22689514 74.36767578 125.22705078 C73.37728302 125.231492 72.38689026 125.23593323 71.3664856 125.24050903 C69 125 69 125 67 123 C65.47102776 120.75551987 64.00578667 118.47445654 62.53515625 116.19140625 C61.15035999 114.21463601 59.70201216 112.69268607 58 111 C57.02561785 109.31107094 56.05392686 107.62025019 55.1171875 105.91015625 C53.94152359 103.9000176 52.63356485 102.05961176 51.25 100.1875 C49 97 49 97 49 95 C48.34 95 47.68 95 47 95 C45.73828125 93.34765625 45.73828125 93.34765625 44.3125 91.0625 C41.57307302 86.78087709 38.56022148 82.85844932 35.3203125 78.9453125 C34 77 34 77 34 74 C33.34 74 32.68 74 32 74 C31.97873047 75.19496094 31.97873047 75.19496094 31.95703125 76.4140625 C31.51878251 86.1502913 31.51878251 86.1502913 28.5625 89.75 C26 92 26 92 24 92 C24.38169843 97.47101086 26.16684764 99.26267645 30 103 C31.01953125 105.26953125 31.01953125 105.26953125 31 108 C29.11749245 110.3045005 27.37073279 112.15098343 25.1875 114.125 C20.73994897 118.24323067 20.73994897 118.24323067 17 123 C16.34 123 15.68 123 15 123 C15 123.66 15 124.32 15 125 C9.05253036 122.84547728 4.19936116 119.76989882 0 115 C-1.35599822 111.14420645 -1.27456534 107.5904653 -1.13525391 103.53515625 C-1.13671417 102.41232742 -1.13817444 101.2894986 -1.13967896 100.13264465 C-1.13274058 96.44059386 -1.05510948 92.75366274 -0.9765625 89.0625 C-0.9579008 86.49563352 -0.94367113 83.9287313 -0.9336853 81.36181641 C-0.8994745 75.30853266 -0.82076704 69.25734526 -0.72019041 63.20484924 C-0.60812583 56.31025291 -0.55336266 49.41556608 -0.50323606 42.52028465 C-0.39891642 28.34571968 -0.21565177 14.17329797 0 0 Z " fill="#31469D" transform="translate(55,187)"/>
<path d="M0 0 C18.48 0 36.96 0 56 0 C55.06920471 3.72318115 54.40621006 5.11977083 52.19140625 8.0546875 C51.32515625 9.21411865 51.32515625 9.21411865 50.44140625 10.39697266 C49.82136719 11.21472168 49.20132813 12.0324707 48.5625 12.875 C47.28177919 14.58796408 46.00183665 16.30151029 44.72265625 18.015625 C44.0898877 18.86060547 43.45711914 19.70558594 42.80517578 20.57617188 C40.33104351 23.89821477 37.90456974 27.25237511 35.5 30.625 C35.09773193 31.18872314 34.69546387 31.75244629 34.28100586 32.33325195 C31.51920817 36.22363825 28.86313864 40.17547851 26.24609375 44.1640625 C24.62681129 46.54983917 22.8249392 48.76951875 21 51 C20.505 51.99 20.505 51.99 20 53 C19.34 53 18.68 53 18 53 C17.34 54.65 16.68 56.3 16 58 C15.34 58 14.68 58 14 58 C13.13149826 60.24875747 13.13149826 60.24875747 13 63 C14.89229266 65.63624434 14.89229266 65.63624434 17 68 C17 68.99 17 69.98 17 71 C17.66 71 18.32 71 19 71 C19 71.66 19 72.32 19 73 C19.99 73.33 20.98 73.66 22 74 C22.70182826 75.31516513 23.35979793 76.65375948 24 78 C25.92556479 80.5894328 27.89165961 83.13907598 29.8984375 85.66601562 C33 89.67891386 33 89.67891386 33 93 C33.66 93 34.32 93 35 93 C36.36116961 94.78233868 37.63623787 96.63051283 38.875 98.5 C43.06930033 104.76275869 47.54625133 110.76753397 52.18896484 116.70507812 C52.68477051 117.35154297 53.18057617 117.99800781 53.69140625 118.6640625 C54.13685791 119.23592285 54.58230957 119.8077832 55.04125977 120.39697266 C56 122 56 122 56 125 C48.73307672 125.0462955 41.46618512 125.08185493 34.19914436 125.10362434 C30.82493006 125.11407142 27.45081648 125.12824725 24.07666016 125.15087891 C20.19951682 125.17504885 16.32251723 125.18646511 12.4453125 125.1953125 C11.23070343 125.20563507 10.01609436 125.21595764 8.76467896 125.22659302 C7.64366791 125.22674408 6.52265686 125.22689514 5.36767578 125.22705078 C4.37728302 125.231492 3.38689026 125.23593323 2.3664856 125.24050903 C0 125 0 125 -2 123 C1.14535949 123 4.27460661 123.10496314 7.41796875 123.21875 C8.67158203 123.26386719 9.92519531 123.30898438 11.21679688 123.35546875 C12.52712891 123.40316406 13.83746094 123.45085937 15.1875 123.5 C16.52278468 123.54822626 17.85807112 123.59640391 19.19335938 123.64453125 C22.4622572 123.762542 25.73113618 123.8810517 29 124 C22.22220004 114.30501507 15.34627551 104.69460637 8.30444336 95.18945312 C3.59186391 88.8234628 -1.05140039 82.40989234 -5.65014648 75.96118164 C-6.14844971 75.26629639 -6.64675293 74.57141113 -7.16015625 73.85546875 C-7.63211426 73.19724121 -8.10407227 72.53901367 -8.59033203 71.86083984 C-9.95528135 70.0590311 -11.41437957 68.41020129 -12.93359375 66.73828125 C-15 64 -15 64 -14.79589844 62.05761719 C-13.91534011 59.78113081 -12.86046557 58.24106693 -11.33203125 56.33984375 C-10.77547852 55.63819092 -10.21892578 54.93653809 -9.64550781 54.21362305 C-8.73816895 53.08694214 -8.73816895 53.08694214 -7.8125 51.9375 C-2.66550718 45.44131482 2.36031195 38.87964804 7.25 32.1875 C11.99017185 25.70994441 16.7938573 19.29522943 21.71875 12.95703125 C24.5156015 9.33166039 27.26026516 5.66862548 30 2 C25.90658501 1.97530425 21.81319879 1.95714207 17.71972656 1.94506836 C16.32681523 1.9400357 14.9339092 1.93320902 13.54101562 1.92456055 C11.54038754 1.91244848 9.53972112 1.90729588 7.5390625 1.90234375 C6.33459473 1.89710693 5.13012695 1.89187012 3.88916016 1.88647461 C1.0586323 1.79912109 1.0586323 1.79912109 -1 3 C-0.67 2.01 -0.34 1.02 0 0 Z " fill="#11B6F0" transform="translate(124,187)"/>
<path d="M0 0 C5.41685457 3.75794286 10.98176787 8.52688962 13 15 C13.87463746 20.65498357 14.04185939 26.28619353 14 32 C14.92232422 32.00386719 14.92232422 32.00386719 15.86328125 32.0078125 C18.36951212 32.12772785 20.58139781 32.32003711 23 33 C24.9375 36 24.9375 36 26 39 C28.6666419 40.33332095 30.16680303 39.67102033 33 39 C33.79953138 35.71303767 34.09658936 34.28976808 33 31 C30.21473551 29.74674715 30.21473551 29.74674715 26.9375 28.8125 C25.83277344 28.46832031 24.72804688 28.12414062 23.58984375 27.76953125 C22.73519531 27.51558594 21.88054687 27.26164062 21 27 C21 26.34 21 25.68 21 25 C20.34 25 19.68 25 19 25 C15.19796384 21.77402993 14.60744099 18.69797189 14.125 13.9375 C13.81255333 9.94120625 13.86964525 7.4432478 16 4 C16.66 4 17.32 4 18 4 C18.2784375 3.1028125 18.2784375 3.1028125 18.5625 2.1875 C20.67180952 -1.02231884 23.36524931 -2.17703758 27 -3 C31.83123486 -3.06506714 35.75302476 -2.32960493 40 0 C40 0.66 40 1.32 40 2 C40.99 2.33 41.98 2.66 43 3 C46.22424242 9.1030303 46.22424242 9.1030303 45 14 C41.37 14 37.74 14 34 14 C33.01 11.525 33.01 11.525 32 9 C30.35 9.33 28.7 9.66 27 10 C26.67 11.32 26.34 12.64 26 14 C28.8755268 16.34967815 31.50990341 17.69787728 35 18.9375 C38.83527126 20.42430119 41.45985764 21.64701209 44 25 C44.5775 25.721875 45.155 26.44375 45.75 27.1875 C47.8933248 32.0099808 47.65353883 37.0393835 46 42 C45.34 42 44.68 42 44 42 C43.773125 42.7425 43.54625 43.485 43.3125 44.25 C41.733845 47.55765809 40.00385901 48.94858409 37 51 C31.7935264 52.7354912 26.85065911 52.66344383 21.6875 50.8125 C16.20607979 47.11572823 14.45890984 43.20036683 13 37 C9.75150023 38.72226496 9.75150023 38.72226496 9 42 C2.3469646 48.43636566 -3.55810679 51.92549059 -12.875 52.3125 C-21.16566821 52.08639087 -27.21084483 49.66086571 -33.2734375 43.97265625 C-38.98435451 37.44773976 -40.45989316 30.05057631 -40.421875 21.58203125 C-39.73719416 15.76858372 -37.37348036 10.76062922 -34 6 C-33.01 5.67 -32.02 5.34 -31 5 C-31 4.34 -31 3.68 -31 3 C-29.41925436 2.18247697 -27.83528777 1.37118003 -26.25 0.5625 C-25.36828125 0.11003906 -24.4865625 -0.34242188 -23.578125 -0.80859375 C-15.78977452 -4.40775571 -7.68439557 -3.51420529 0 0 Z M-23 12 C-23 12.66 -23 13.32 -23 14 C-23.99 14.33 -24.98 14.66 -26 15 C-28.2127758 18.20445459 -28.2980309 21.11283517 -28.3125 24.9375 C-28.32925781 25.95714844 -28.34601563 26.97679687 -28.36328125 28.02734375 C-27.94621659 31.44009863 -27.04282625 33.2556928 -25 36 C-20.39842487 39.18570586 -16.71486052 40.89794892 -11 41 C-4.16714469 38.99726655 -1.05616982 35.64502832 2.375 29.5625 C3.79262888 23.7502216 1.83117299 19.04687359 -1 14 C-1.66 14 -2.32 14 -3 14 C-3 13.34 -3 12.68 -3 12 C-9.40062812 8.06115193 -16.89648761 6.88092509 -23 12 Z M12 32 C13 34 13 34 13 34 Z " fill="#4A5BA8" transform="translate(281,225)"/>
<path d="M0 0 C0.70125 0.01417969 1.4025 0.02835938 2.125 0.04296875 C3.176875 0.05263672 3.176875 0.05263672 4.25 0.0625 C6.125 0.23046875 6.125 0.23046875 8.125 1.23046875 C8.125 7.83046875 8.125 14.43046875 8.125 21.23046875 C11.51373831 17.84173044 13.71631098 15.63181688 16.125 11.79296875 C22.41203704 2.08695023 22.41203704 2.08695023 26.125 0.23046875 C27.78036064 0.13444805 29.43951436 0.09972321 31.09765625 0.09765625 C32.07927734 0.09636719 33.06089844 0.09507812 34.07226562 0.09375 C35.61430664 0.09955078 35.61430664 0.09955078 37.1875 0.10546875 C38.21939453 0.10160156 39.25128906 0.09773437 40.31445312 0.09375 C41.29478516 0.09503906 42.27511719 0.09632813 43.28515625 0.09765625 C44.64072632 0.09934814 44.64072632 0.09934814 46.02368164 0.10107422 C48.125 0.23046875 48.125 0.23046875 49.125 1.23046875 C49.52463061 5.78034706 49.6049949 10.35347815 49.75 14.91796875 C49.77279022 15.59031555 49.79558044 16.26266235 49.81906128 16.9553833 C50.2185985 29.08764107 49.94335286 41.11884648 49.125 53.23046875 C45.495 53.23046875 41.865 53.23046875 38.125 53.23046875 C37.795 37.06046875 37.465 20.89046875 37.125 4.23046875 C36.465 5.22046875 35.805 6.21046875 35.125 7.23046875 C34.465 7.23046875 33.805 7.23046875 33.125 7.23046875 C32.8465625 8.22046875 32.8465625 8.22046875 32.5625 9.23046875 C30.49135225 13.55286406 27.3286619 16.70501045 24.125 20.23046875 C21.01851586 23.89594815 21.01851586 23.89594815 19.125 28.23046875 C19.785 28.23046875 20.445 28.23046875 21.125 28.23046875 C22.28125 29.7421875 22.28125 29.7421875 23.625 31.91796875 C26.74392644 36.79808002 30.23012404 41.30485187 33.87304688 45.79956055 C37.125 49.90620962 37.125 49.90620962 37.125 53.23046875 C34.83358714 53.28431396 32.54181812 53.32318962 30.25 53.35546875 C28.97382813 53.37867188 27.69765625 53.401875 26.3828125 53.42578125 C23.125 53.23046875 23.125 53.23046875 21.125 51.23046875 C21.125 50.24046875 21.125 49.25046875 21.125 48.23046875 C20.465 48.23046875 19.805 48.23046875 19.125 48.23046875 C18.58875 47.24046875 18.0525 46.25046875 17.5 45.23046875 C15.00966947 41.03622786 12.0517089 37.13274729 9.125 33.23046875 C8.795 39.83046875 8.465 46.43046875 8.125 53.23046875 C-0.37109375 53.328125 -0.37109375 53.328125 -2.875 53.23046875 C-4.49951776 51.60595099 -4.01054683 49.80206771 -4.02026367 47.55883789 C-4.02664352 46.56433121 -4.03302338 45.56982452 -4.03959656 44.54518127 C-4.04070938 43.4629277 -4.0418222 42.38067413 -4.04296875 41.265625 C-4.04629715 40.16198105 -4.04962555 39.0583371 -4.05305481 37.92124939 C-4.05812886 35.58169981 -4.06046299 33.24214297 -4.06030273 30.90258789 C-4.06248848 27.31189109 -4.08063734 23.72150171 -4.09960938 20.13085938 C-4.10254327 17.86328231 -4.10452809 15.59570377 -4.10546875 13.328125 C-4.11265427 12.24789566 -4.11983978 11.16766632 -4.12724304 10.05470276 C-4.12416641 9.05704391 -4.12108978 8.05938507 -4.11791992 7.03149414 C-4.11934494 6.15070694 -4.12076996 5.26991974 -4.12223816 4.36244202 C-3.79185613 1.5135062 -2.9085018 0.35750335 0 0 Z " fill="#6876B6" transform="translate(189.875,222.76953125)"/>
<path d="M0 0 C1.91015625 0.23046875 1.91015625 0.23046875 3.91015625 2.23046875 C4.22900391 4.10986328 4.22900391 4.10986328 4.32421875 6.36328125 C4.36289062 7.16894531 4.4015625 7.97460938 4.44140625 8.8046875 C4.47234375 9.64644531 4.50328125 10.48820313 4.53515625 11.35546875 C4.57382812 12.20496094 4.6125 13.05445313 4.65234375 13.9296875 C4.74672119 16.02958559 4.82953211 18.12999766 4.91015625 20.23046875 C5.52890625 19.24046875 6.14765625 18.25046875 6.78515625 17.23046875 C7.48640625 16.24046875 8.18765625 15.25046875 8.91015625 14.23046875 C9.57015625 14.23046875 10.23015625 14.23046875 10.91015625 14.23046875 C11.21953125 13.24046875 11.21953125 13.24046875 11.53515625 12.23046875 C13.53829874 7.85997604 16.48863519 2.44122928 20.91015625 0.23046875 C22.45039621 0.16096334 23.99350613 0.14594518 25.53515625 0.16796875 C26.76105469 0.18150391 26.76105469 0.18150391 28.01171875 0.1953125 C28.63820313 0.20691406 29.2646875 0.21851563 29.91015625 0.23046875 C29.91015625 4.97432679 28.31287961 6.918848 25.53515625 10.48046875 C25.12265625 11.03476563 24.71015625 11.5890625 24.28515625 12.16015625 C23.21554239 13.56100538 22.06781751 14.9014569 20.91015625 16.23046875 C20.25015625 16.23046875 19.59015625 16.23046875 18.91015625 16.23046875 C18.91015625 17.22046875 18.91015625 18.21046875 18.91015625 19.23046875 C18.25015625 19.23046875 17.59015625 19.23046875 16.91015625 19.23046875 C16.62140625 19.80796875 16.33265625 20.38546875 16.03515625 20.98046875 C15.30177557 22.44723011 14.5524402 23.90615462 13.78515625 25.35546875 C12.76919443 27.18767677 12.76919443 27.18767677 12.91015625 29.23046875 C13.57015625 29.23046875 14.23015625 29.23046875 14.91015625 29.23046875 C16.06640625 30.7421875 16.06640625 30.7421875 17.41015625 32.91796875 C20.16939325 37.21469105 23.15803863 41.26188414 26.28515625 45.29296875 C26.73826172 45.87715576 27.19136719 46.46134277 27.65820312 47.06323242 C28.73990919 48.4540861 29.82469823 49.84254121 30.91015625 51.23046875 C30.41515625 52.22046875 30.41515625 52.22046875 29.91015625 53.23046875 C26.28015625 53.23046875 22.65015625 53.23046875 18.91015625 53.23046875 C18.91015625 52.57046875 18.91015625 51.91046875 18.91015625 51.23046875 C18.25015625 51.23046875 17.59015625 51.23046875 16.91015625 51.23046875 C15.61328125 49.54296875 15.61328125 49.54296875 14.16015625 47.23046875 C11.26820228 42.73583093 8.1542404 38.47449568 4.91015625 34.23046875 C4.84957031 35.51824219 4.78898437 36.80601562 4.7265625 38.1328125 C4.64217378 39.81121034 4.55752495 41.48959511 4.47265625 43.16796875 C4.43333984 44.01810547 4.39402344 44.86824219 4.35351562 45.74414062 C4.31162109 46.55302734 4.26972656 47.36191406 4.2265625 48.1953125 C4.17157593 49.31860962 4.17157593 49.31860962 4.11547852 50.46459961 C3.91015625 52.23046875 3.91015625 52.23046875 2.91015625 53.23046875 C1.39087587 53.30226839 -0.13151857 53.31438882 -1.65234375 53.29296875 C-2.47863281 53.28394531 -3.30492187 53.27492188 -4.15625 53.265625 C-4.79433594 53.25402344 -5.43242187 53.24242187 -6.08984375 53.23046875 C-6.25765657 45.8433243 -6.41762246 38.45604043 -6.57202148 31.06860352 C-6.62553241 28.55326449 -6.68086844 26.03796363 -6.73803711 23.52270508 C-6.8196951 19.91626214 -6.89488015 16.30973479 -6.96875 12.703125 C-6.99578506 11.57084976 -7.02282013 10.43857452 -7.05067444 9.27198792 C-7.07077072 8.23098434 -7.090867 7.18998077 -7.11157227 6.11743164 C-7.13155777 5.19587784 -7.15154327 4.27432404 -7.1721344 3.32484436 C-6.99656208 -1.14363892 -3.74097611 0.07468373 0 0 Z " fill="#1FBBF1" transform="translate(336.08984375,222.76953125)"/>
<path d="M0 0 C4.48036548 3.01937674 7.24283133 6.65196711 8.6875 11.875 C8.749375 12.555625 8.81125 13.23625 8.875 13.9375 C5.42254176 16.23913882 3.92761287 16.28240322 -0.125 15.9375 C-0.785 15.2775 -1.445 14.6175 -2.125 13.9375 C-2.125 12.9475 -2.125 11.9575 -2.125 10.9375 C-2.785 10.9375 -3.445 10.9375 -4.125 10.9375 C-4.125 10.2775 -4.125 9.6175 -4.125 8.9375 C-6.105 8.9375 -8.085 8.9375 -10.125 8.9375 C-10.125 9.5975 -10.125 10.2575 -10.125 10.9375 C-10.785 10.9375 -11.445 10.9375 -12.125 10.9375 C-11.795 13.5775 -11.465 16.2175 -11.125 18.9375 C-10.54492188 19.03546875 -9.96484375 19.1334375 -9.3671875 19.234375 C-4.11010682 20.24068087 -0.40522983 21.55313223 3.875 24.9375 C4.638125 25.47375 5.40125 26.01 6.1875 26.5625 C8.86365118 30.32893499 8.73566731 34.41615414 8.875 38.9375 C8.92140625 39.80503906 8.9678125 40.67257812 9.015625 41.56640625 C8.875 43.9375 8.875 43.9375 6.875 46.9375 C6.215 46.9375 5.555 46.9375 4.875 46.9375 C4.441875 47.865625 4.441875 47.865625 4 48.8125 C2.7008653 51.26642111 1.71103603 52.65999967 -0.97265625 53.55078125 C-3.20736973 53.95229964 -5.29253782 54.10532962 -7.5625 54.125 C-8.67431641 54.14626953 -8.67431641 54.14626953 -9.80859375 54.16796875 C-13.70921163 53.77988029 -16.30603883 52.70196756 -19.1796875 50.01953125 C-24.01594599 43.98977549 -24.01594599 43.98977549 -24.34765625 40.7890625 C-24.0625 38.875 -24.0625 38.875 -23.125 35.9375 C-19.75 35.3125 -19.75 35.3125 -16.125 34.9375 C-13.89577045 37.16672955 -13.24371047 39.02885278 -12.125 41.9375 C-10.95463695 43.33037806 -10.95463695 43.33037806 -7.6875 43.125 C-4.07467279 43.33314928 -4.07467279 43.33314928 -2.125 40.9375 C-1.88246187 38.72677023 -1.88246187 38.72677023 -2 36.3125 C-2.01804687 35.49523437 -2.03609375 34.67796875 -2.0546875 33.8359375 C-2.07789063 33.20945312 -2.10109375 32.58296875 -2.125 31.9375 C-3.1459375 31.751875 -3.1459375 31.751875 -4.1875 31.5625 C-10.09746893 30.3050598 -14.68211139 29.24575563 -19.125 24.9375 C-19.125 24.2775 -19.125 23.6175 -19.125 22.9375 C-19.785 22.6075 -20.445 22.2775 -21.125 21.9375 C-23.50134033 17.68510152 -23.19095767 14.61131438 -22.125 9.9375 C-20.01778732 4.95681548 -18.38189231 1.91206713 -13.375 -0.25 C-8.52126271 -1.46343432 -4.76631876 -1.62054838 0 0 Z " fill="#2ABFF2" transform="translate(459.125,223.0625)"/>
<path d="M0 0 C1.12591553 0.00523682 2.25183105 0.01047363 3.41186523 0.01586914 C4.62680664 0.0190918 5.84174805 0.02231445 7.09350586 0.02563477 C8.37290039 0.03401367 9.65229492 0.04239258 10.97045898 0.05102539 C12.2537207 0.05553711 13.53698242 0.06004883 14.85913086 0.06469727 C18.04211921 0.07652994 21.22501661 0.09301471 24.40795898 0.11352539 C24.40795898 1.43352539 24.40795898 2.75352539 24.40795898 4.11352539 C25.06795898 4.44352539 25.72795898 4.77352539 26.40795898 5.11352539 C25.74795898 5.11352539 25.08795898 5.11352539 24.40795898 5.11352539 C24.73795898 6.10352539 25.06795898 7.09352539 25.40795898 8.11352539 C23.83497985 9.97915181 22.95285682 11.01590982 20.50683594 11.45410156 C19.81033936 11.43839111 19.11384277 11.42268066 18.39624023 11.40649414 C17.63891602 11.39682617 16.8815918 11.3871582 16.10131836 11.37719727 C15.31563477 11.35206055 14.52995117 11.32692383 13.72045898 11.30102539 C12.92317383 11.28749023 12.12588867 11.27395508 11.30444336 11.26000977 C9.33865931 11.22469628 7.37322316 11.17088986 5.40795898 11.11352539 C5.40795898 14.41352539 5.40795898 17.71352539 5.40795898 21.11352539 C11.67795898 21.44352539 17.94795898 21.77352539 24.40795898 22.11352539 C24.73795898 24.75352539 25.06795898 27.39352539 25.40795898 30.11352539 C23.40795898 32.11352539 23.40795898 32.11352539 19.49389648 32.30883789 C17.92346548 32.29552915 16.35309677 32.27166142 14.78295898 32.23852539 C13.98116211 32.22950195 13.17936523 32.22047852 12.35327148 32.21118164 C10.37137376 32.18758762 8.38962918 32.15171604 6.40795898 32.11352539 C6.07795898 35.41352539 5.74795898 38.71352539 5.40795898 42.11352539 C8.70756039 43.76332609 12.39923783 43.496109 16.03295898 43.67602539 C17.2356543 43.74080078 17.2356543 43.74080078 18.46264648 43.80688477 C20.44421009 43.91303996 22.42606169 44.01379394 24.40795898 44.11352539 C25.53295898 50.86352539 25.53295898 50.86352539 24.40795898 53.11352539 C15.16795898 53.11352539 5.92795898 53.11352539 -3.59204102 53.11352539 C-3.61494351 45.72619864 -3.63487259 38.33899407 -3.64697266 30.95166016 C-3.65201465 28.43635644 -3.65884804 25.92105567 -3.66748047 23.40576172 C-3.67955196 19.79922764 -3.6852705 16.19273217 -3.68969727 12.58618164 C-3.69485855 11.4539064 -3.70001984 10.32163116 -3.70533752 9.15504456 C-3.70541306 8.11404099 -3.70548859 7.07303741 -3.70556641 6.00048828 C-3.70778702 5.07893448 -3.71000763 4.15738068 -3.71229553 3.207901 C-3.5323176 0.07337096 -3.16075424 0.13843371 0 0 Z " fill="#08B5F0" transform="translate(371.592041015625,222.886474609375)"/>
<path d="M0 0 C3.3 0 6.6 0 10 0 C12.8666629 4.91427925 15.49418871 9.89361985 18 15 C18.66573541 16.33379856 19.33215156 17.66725821 20 19 C20.66 19 21.32 19 22 19 C22.39832031 18.04738281 22.79664063 17.09476563 23.20703125 16.11328125 C23.74199105 14.8462712 24.27715832 13.57934874 24.8125 12.3125 C25.07353516 11.68666016 25.33457031 11.06082031 25.60351562 10.41601562 C28.8296715 2.80866041 28.8296715 2.80866041 31 0 C33.26171875 -0.48828125 33.26171875 -0.48828125 35.6875 -0.3125 C36.49574219 -0.26738281 37.30398438 -0.22226563 38.13671875 -0.17578125 C38.75160156 -0.11777344 39.36648438 -0.05976563 40 0 C40 4.43360299 39.03413649 6.48677497 37.125 10.4375 C35.29218256 14.25808321 33.55482287 18.05886202 32 22 C29 28 29 28 27.94140625 30.11328125 C26.63295836 34.12549283 26.57480639 37.99128277 26.4375 42.1875 C26.12053951 50.75892099 26.12053951 50.75892099 25 53 C23.52093108 53.02689216 22.04172517 53.04634621 20.5625 53.0625 C19.32693359 53.07990234 19.32693359 53.07990234 18.06640625 53.09765625 C16 53 16 53 15 52 C14.98085285 49.870411 14.96453431 47.74075822 14.96264648 45.61108398 C14.86520725 35.25130694 12.92297936 28.00949721 7.71484375 19.08984375 C6 16 6 16 6 13 C5.34 12.67 4.68 12.34 4 12 C1.82493756 8.19364072 0 4.41221478 0 0 Z " fill="#3CC6F3" transform="translate(397,223)"/>
<path d="M0 0 C2.97 0 5.94 0 9 0 C9 16.5 9 33 9 50 C6.03 50 3.06 50 0 50 C0 33.5 0 17 0 0 Z " fill="#2B3F9A" transform="translate(229,225)"/>
<path d="M0 0 C2.64 0 5.28 0 8 0 C9 1 9 1 9.11352539 3.04125977 C9.10828857 3.91580811 9.10305176 4.79035645 9.09765625 5.69140625 C9.09443359 6.63564453 9.09121094 7.57988281 9.08789062 8.55273438 C9.07951172 9.54595703 9.07113281 10.53917969 9.0625 11.5625 C9.05798828 12.55958984 9.05347656 13.55667969 9.04882812 14.58398438 C9.03700007 17.05604849 9.02051849 19.52799518 9 22 C8.67 22 8.34 22 8 22 C7.67 31.57 7.34 41.14 7 51 C4.69 51 2.38 51 0 51 C0 34.17 0 17.34 0 0 Z " fill="#01B2F0" transform="translate(331,224)"/>
<path d="M0 0 C2.64 0 5.28 0 8 0 C8 16.17 8 32.34 8 49 C5.36 49 2.72 49 0 49 C0 32.83 0 16.66 0 0 Z " fill="#263B98" transform="translate(188,225)"/>
<path d="M0 0 C2.92152702 1.8344472 5.4326609 3.86532181 7 7 C7.41204834 11.63554388 6.87454146 14.30416098 4 18 C0.57905881 20.56570589 -2.84773484 20.43708054 -7 20 C-9.875 18.5625 -9.875 18.5625 -12 16 C-13.08096669 12.14949775 -13.63279813 8.60655597 -12.14453125 4.828125 C-9.32633841 0.32671118 -5.03291869 -0.82170101 0 0 Z M-7 6 C-7.68493373 8.85778033 -7.68493373 8.85778033 -8 12 C-7.01 13.485 -7.01 13.485 -6 15 C-2.91634129 15.2502157 -2.91634129 15.2502157 0 15 C0.66 13.02 1.32 11.04 2 9 C0.87890434 7.37506099 0.87890434 7.37506099 -1 6 C-4.12549017 5.74951364 -4.12549017 5.74951364 -7 6 Z " fill="#ABB3B8" transform="translate(336,286)"/>
<path d="M0 0 C1.12591553 0.00523682 2.25183105 0.01047363 3.41186523 0.01586914 C4.62680664 0.0190918 5.84174805 0.02231445 7.09350586 0.02563477 C8.37290039 0.03401367 9.65229492 0.04239258 10.97045898 0.05102539 C12.2537207 0.05553711 13.53698242 0.06004883 14.85913086 0.06469727 C18.04211921 0.07652994 21.22501661 0.09301471 24.40795898 0.11352539 C24.40795898 1.43352539 24.40795898 2.75352539 24.40795898 4.11352539 C25.06795898 4.44352539 25.72795898 4.77352539 26.40795898 5.11352539 C25.74795898 5.11352539 25.08795898 5.11352539 24.40795898 5.11352539 C24.73795898 6.10352539 25.06795898 7.09352539 25.40795898 8.11352539 C23.83497985 9.97915181 22.95285682 11.01590982 20.50683594 11.45410156 C19.81033936 11.43839111 19.11384277 11.42268066 18.39624023 11.40649414 C17.63891602 11.39682617 16.8815918 11.3871582 16.10131836 11.37719727 C15.31563477 11.35206055 14.52995117 11.32692383 13.72045898 11.30102539 C12.92317383 11.28749023 12.12588867 11.27395508 11.30444336 11.26000977 C9.33865931 11.22469628 7.37322316 11.17088986 5.40795898 11.11352539 C5.40795898 10.12352539 5.40795898 9.13352539 5.40795898 8.11352539 C11.34795898 8.11352539 17.28795898 8.11352539 23.40795898 8.11352539 C23.40795898 6.13352539 23.40795898 4.15352539 23.40795898 2.11352539 C14.82795898 2.11352539 6.24795898 2.11352539 -2.59204102 2.11352539 C-2.59204102 18.61352539 -2.59204102 35.11352539 -2.59204102 52.11352539 C5.98795898 52.11352539 14.56795898 52.11352539 23.40795898 52.11352539 C23.40795898 49.80352539 23.40795898 47.49352539 23.40795898 45.11352539 C17.46795898 45.11352539 11.52795898 45.11352539 5.40795898 45.11352539 C5.40795898 44.78352539 5.40795898 44.45352539 5.40795898 44.11352539 C11.67795898 44.11352539 17.94795898 44.11352539 24.40795898 44.11352539 C25.40795898 51.11352539 25.40795898 51.11352539 24.40795898 53.11352539 C15.16795898 53.11352539 5.92795898 53.11352539 -3.59204102 53.11352539 C-3.61494351 45.72619864 -3.63487259 38.33899407 -3.64697266 30.95166016 C-3.65201465 28.43635644 -3.65884804 25.92105567 -3.66748047 23.40576172 C-3.67955196 19.79922764 -3.6852705 16.19273217 -3.68969727 12.58618164 C-3.69485855 11.4539064 -3.70001984 10.32163116 -3.70533752 9.15504456 C-3.70541306 8.11404099 -3.70548859 7.07303741 -3.70556641 6.00048828 C-3.70778702 5.07893448 -3.71000763 4.15738068 -3.71229553 3.207901 C-3.5323176 0.07337096 -3.16075424 0.13843371 0 0 Z " fill="#BFEBFB" transform="translate(371.592041015625,222.886474609375)"/>
<path d="M0 0 C0.91007812 0.00902344 1.82015625 0.01804687 2.7578125 0.02734375 C3.45648438 0.03894531 4.15515625 0.05054688 4.875 0.0625 C5.25718767 1.71864657 5.58895102 3.38707024 5.875 5.0625 C4.875 6.0625 4.875 6.0625 2.3125 6.125 C1.1059375 6.0940625 1.1059375 6.0940625 -0.125 6.0625 C-0.125 6.7225 -0.125 7.3825 -0.125 8.0625 C1.855 8.0625 3.835 8.0625 5.875 8.0625 C5.875 9.3825 5.875 10.7025 5.875 12.0625 C3.895 12.3925 1.915 12.7225 -0.125 13.0625 C-0.125 13.3925 -0.125 13.7225 -0.125 14.0625 C2.845 14.5575 2.845 14.5575 5.875 15.0625 C5.875 16.7125 5.875 18.3625 5.875 20.0625 C3.89590602 20.08936553 1.91671029 20.10883375 -0.0625 20.125 C-1.16464844 20.13660156 -2.26679688 20.14820313 -3.40234375 20.16015625 C-6.125 20.0625 -6.125 20.0625 -7.125 19.0625 C-7.21131874 17.71982587 -7.23206473 16.37275678 -7.22265625 15.02734375 C-7.21943359 14.21845703 -7.21621094 13.40957031 -7.21289062 12.57617188 C-7.20451172 11.72603516 -7.19613281 10.87589844 -7.1875 10 C-7.18298828 9.14599609 -7.17847656 8.29199219 -7.17382812 7.41210938 C-7.16200373 5.29554337 -7.14406769 3.17901315 -7.125 1.0625 C-4.60024538 -0.19987731 -2.81299534 -0.03606404 0 0 Z " fill="#D3D7DA" transform="translate(415.125,285.9375)"/>
<path d="M0 0 C2.875 1.8125 2.875 1.8125 5 4 C5 4.99 5 5.98 5 7 C3.0625 7.5625 3.0625 7.5625 1 8 C0.67 7.67 0.34 7.34 0 7 C-2.67058851 6.85884839 -5.32432238 6.95752893 -8 7 C-7.67 8.98 -7.34 10.96 -7 13 C-4.64632287 13.6878236 -4.64632287 13.6878236 -2 14 C-1.01 13.34 -0.02 12.68 1 12 C3.1875 12.375 3.1875 12.375 5 13 C4.64393309 15.58148508 4.16671807 16.82045747 2.375 18.75 C-0.99335925 20.52282066 -3.23678889 20.45418065 -7 20 C-10.4375 18.75 -10.4375 18.75 -13 16 C-13.51110821 11.95417505 -13.34434006 8.05556072 -13 4 C-11.68 3.67 -10.36 3.34 -9 3 C-9 2.34 -9 1.68 -9 1 C-5.66660588 -0.11113137 -3.49519344 -0.34951934 0 0 Z " fill="#B5BCC0" transform="translate(315,286)"/>
<path d="M0 0 C3.875 1.75 3.875 1.75 5 4 C5.99 2.68 6.98 1.36 8 0 C9.65 0.33 11.3 0.66 13 1 C11.93102496 3.30240777 10.96375688 5.04012631 9.25 6.9375 C8.8375 7.618125 8.425 8.29875 8 9 C8.94987883 12.70452744 10.97451219 15.77763302 13 19 C10.6875 19.6875 10.6875 19.6875 8 20 C6.1875 18.5625 6.1875 18.5625 5 17 C4.34 17.99 3.68 18.98 3 20 C1.68 20 0.36 20 -1 20 C-1.02888514 16.85418577 -1.04675923 13.70840531 -1.0625 10.5625 C-1.07087891 9.66466797 -1.07925781 8.76683594 -1.08789062 7.84179688 C-1.09111328 6.98779297 -1.09433594 6.13378906 -1.09765625 5.25390625 C-1.10551147 4.06776733 -1.10551147 4.06776733 -1.11352539 2.85766602 C-1 1 -1 1 0 0 Z " fill="#ACB3B8" transform="translate(392,286)"/>
<path d="M0 0 C1.8125 1.25 1.8125 1.25 3 3 C3 4.32 3 5.64 3 7 C2.34 7 1.68 7 1 7 C1.495 7.556875 1.99 8.11375 2.5 8.6875 C4.30684791 11.4730572 4.57035173 12.74084723 4 16 C1.86907223 19.03247414 0.65930734 19.87637987 -3 20.5625 C-6 20 -6 20 -8.375 17.5 C-8.91125 16.675 -9.4475 15.85 -10 15 C-9.67 14.34 -9.34 13.68 -9 13 C-8.06239572 10.18718715 -7.94190557 8.69103654 -8.0625 5.8125 C-8.041875 4.554375 -8.02125 3.29625 -8 2 C-4.76746204 -0.15502531 -3.74849077 -0.46856135 0 0 Z M-3 5 C-3.33 5.66 -3.66 6.32 -4 7 C-3.34 7 -2.68 7 -2 7 C-2.33 6.34 -2.66 5.68 -3 5 Z M-5 12 C-4.67 12.99 -4.34 13.98 -4 15 C-3.34 14.01 -2.68 13.02 -2 12 C-2.99 12 -3.98 12 -5 12 Z " fill="#CFD3D6" transform="translate(450,286)"/>
<path d="M0 0 C1.51400391 0.02803711 1.51400391 0.02803711 3.05859375 0.05664062 C10.4276225 0.2401225 10.4276225 0.2401225 11.625 1.4375 C12.02463061 5.98737831 12.1049949 10.5605094 12.25 15.125 C12.27279022 15.7973468 12.29558044 16.4696936 12.31906128 17.16241455 C12.7185985 29.29467232 12.44335286 41.32587773 11.625 53.4375 C7.995 53.4375 4.365 53.4375 0.625 53.4375 C0.295 37.2675 -0.035 21.0975 -0.375 4.4375 C-1.365 5.9225 -1.365 5.9225 -2.375 7.4375 C-3.035 7.1075 -3.695 6.7775 -4.375 6.4375 C-3.715 5.4475 -3.055 4.4575 -2.375 3.4375 C-8.50221324 2.71518156 -8.50221324 2.71518156 -14.15234375 4.55078125 C-15.66961729 6.05318223 -15.66961729 6.05318223 -17.375 8.4375 C-17.705 7.7775 -18.035 7.1175 -18.375 6.4375 C-12.84729349 0.09984254 -8.13994727 -0.37773611 0 0 Z M1.625 2.4375 C1.625 18.9375 1.625 35.4375 1.625 52.4375 C4.595 52.4375 7.565 52.4375 10.625 52.4375 C10.625 35.9375 10.625 19.4375 10.625 2.4375 C7.655 2.4375 4.685 2.4375 1.625 2.4375 Z " fill="#DADDED" transform="translate(227.375,222.5625)"/>
<path d="M0 0 C2.05078125 0.03255208 4.1015625 0.06510417 6.15234375 0.09765625 C6.15234375 0.42765625 6.15234375 0.75765625 6.15234375 1.09765625 C3.84234375 1.09765625 1.53234375 1.09765625 -0.84765625 1.09765625 C-0.84765625 17.92765625 -0.84765625 34.75765625 -0.84765625 52.09765625 C1.46234375 52.09765625 3.77234375 52.09765625 6.15234375 52.09765625 C6.15234375 41.53765625 6.15234375 30.97765625 6.15234375 20.09765625 C7.14234375 20.09765625 8.13234375 20.09765625 9.15234375 20.09765625 C10.51410956 18.11690598 11.84827491 16.11685962 13.15234375 14.09765625 C13.81234375 14.09765625 14.47234375 14.09765625 15.15234375 14.09765625 C14.48567708 15.43098958 13.81901042 16.76432292 13.15234375 18.09765625 C12.65734375 19.14953125 12.16234375 20.20140625 11.65234375 21.28515625 C10.15234375 24.09765625 10.15234375 24.09765625 8.15234375 25.09765625 C8.70333133 28.95710456 9.7227263 31.31171696 12.05859375 34.41796875 C12.63738281 35.20042969 13.21617187 35.98289062 13.8125 36.7890625 C14.41964844 37.59214844 15.02679688 38.39523437 15.65234375 39.22265625 C16.85362408 40.82691384 18.05169096 42.43358414 19.24609375 44.04296875 C20.04563477 45.10281982 20.04563477 45.10281982 20.86132812 46.18408203 C22.15234375 48.09765625 22.15234375 48.09765625 23.15234375 51.09765625 C22.49234375 51.09765625 21.83234375 51.09765625 21.15234375 51.09765625 C19.85546875 49.41015625 19.85546875 49.41015625 18.40234375 47.09765625 C15.51038978 42.60301843 12.3964279 38.34168318 9.15234375 34.09765625 C9.09175781 35.38542969 9.03117187 36.67320312 8.96875 38 C8.88436128 39.67839784 8.79971245 41.35678261 8.71484375 43.03515625 C8.67552734 43.88529297 8.63621094 44.73542969 8.59570312 45.61132812 C8.55380859 46.42021484 8.51191406 47.22910156 8.46875 48.0625 C8.41376343 49.18579712 8.41376343 49.18579712 8.35766602 50.33178711 C8.15234375 52.09765625 8.15234375 52.09765625 7.15234375 53.09765625 C5.63306337 53.16945589 4.11066893 53.18157632 2.58984375 53.16015625 C1.76355469 53.15113281 0.93726563 53.14210938 0.0859375 53.1328125 C-0.55214844 53.12121094 -1.19023437 53.10960937 -1.84765625 53.09765625 C-2.01546907 45.7105118 -2.17543496 38.32322793 -2.32983398 30.93579102 C-2.38334491 28.42045199 -2.43868094 25.90515113 -2.49584961 23.38989258 C-2.5775076 19.78344964 -2.65269265 16.17692229 -2.7265625 12.5703125 C-2.75359756 11.43803726 -2.78063263 10.30576202 -2.80848694 9.13917542 C-2.82858322 8.09817184 -2.8486795 7.05716827 -2.86938477 5.98461914 C-2.88937027 5.06306534 -2.90935577 4.14151154 -2.9299469 3.19203186 C-2.82490068 0.51850529 -2.67885374 0.14158846 0 0 Z " fill="#9DCCFA" transform="translate(331.84765625,222.90234375)"/>
<path d="M0 0 C3.72789813 0.28676139 5.47960834 0.72405467 8.25 3.25 C8.875 6.75 8.875 6.75 8.25 10.25 C5.40739513 12.63164192 3.96594733 13.25 0.25 13.25 C0.25 15.23 0.25 17.21 0.25 19.25 C-1.07 19.58 -2.39 19.91 -3.75 20.25 C-3.77888514 17.10418577 -3.79675923 13.95840531 -3.8125 10.8125 C-3.82087891 9.91466797 -3.82925781 9.01683594 -3.83789062 8.09179688 C-3.84111328 7.23779297 -3.84433594 6.38378906 -3.84765625 5.50390625 C-3.85551147 4.31776733 -3.85551147 4.31776733 -3.86352539 3.10766602 C-3.67826043 0.07609383 -3.05516809 0.27774255 0 0 Z " fill="#C7CCCF" transform="translate(349.75,285.75)"/>
<path d="M0 0 C3.79588866 0.54226981 5.47211993 2.20127563 8 5 C8.66 3.35 9.32 1.7 10 0 C11.9375 0.3125 11.9375 0.3125 14 1 C14.33 1.99 14.66 2.98 15 4 C13.6875 6.4375 13.6875 6.4375 12 9 C10.52098056 11.49098011 10 12.69314065 10 15.625 C10 16.40875 10 17.1925 10 18 C9.34 18.66 8.68 19.32 8 20 C5.875 19.625 5.875 19.625 4 19 C3.87625 17.2675 3.87625 17.2675 3.75 15.5 C3.26434487 11.35721457 1.84206446 8.33150958 -0.2578125 4.76171875 C-1 3 -1 3 0 0 Z " fill="#C8CED0" transform="translate(360,286)"/>
<path d="M0 0 C1.98 0.495 1.98 0.495 4 1 C4.33 2.65 4.66 4.3 5 6 C5.66 6 6.32 6 7 6 C7.33 4.35 7.66 2.7 8 1 C11.75 -0.125 11.75 -0.125 14 1 C12.95668802 3.7286621 11.85881954 6.25412482 10.4375 8.8125 C8.69733685 12.67112264 8.36221498 15.79830625 8 20 C6.68 19.67 5.36 19.34 4 19 C3.87625 17.515 3.87625 17.515 3.75 16 C3.23152738 12.12716662 1.71376205 9.23261092 -0.2578125 5.89453125 C-1.17971598 3.5412513 -0.82116943 2.34397097 0 0 Z " fill="#A1AAAF" transform="translate(425,286)"/>
<path d="M0 0 C6.15234375 -0.09765625 6.15234375 -0.09765625 8 0 C9 1 9 1 9.11352539 3.04125977 C9.10828857 3.91580811 9.10305176 4.79035645 9.09765625 5.69140625 C9.09443359 6.63564453 9.09121094 7.57988281 9.08789062 8.55273438 C9.07951172 9.54595703 9.07113281 10.53917969 9.0625 11.5625 C9.05798828 12.55958984 9.05347656 13.55667969 9.04882812 14.58398438 C9.03700007 17.05604849 9.02051849 19.52799518 9 22 C8.67 22 8.34 22 8 22 C7.67 31.57 7.34 41.14 7 51 C4.69 51 2.38 51 0 51 C0 50.67 0 50.34 0 50 C1.98 50 3.96 50 6 50 C6 33.83 6 17.66 6 1 C4.02 1 2.04 1 0 1 C0 0.67 0 0.34 0 0 Z " fill="#219AF5" transform="translate(331,224)"/>
<path d="M0 0 C3.3 0 6.6 0 10 0 C10 1.32 10 2.64 10 4 C8.02 4 6.04 4 4 4 C3.67 4.99 3.34 5.98 3 7 C5.31 7 7.62 7 10 7 C10 7.66 10 8.32 10 9 C7.69 9 5.38 9 3 9 C3 10.65 3 12.3 3 14 C5.31 14 7.62 14 10 14 C10 14.66 10 15.32 10 16 C6.7 16 3.4 16 0 16 C0 10.72 0 5.44 0 0 Z " fill="#727E85" transform="translate(410,288)"/>
<path d="M0 0 C2.875 1.8125 2.875 1.8125 5 4 C5 4.99 5 5.98 5 7 C3.0625 7.5625 3.0625 7.5625 1 8 C0.67 7.67 0.34 7.34 0 7 C-1.68608966 6.92794489 -3.37500659 6.91613932 -5.0625 6.9375 C-5.98160156 6.94652344 -6.90070313 6.95554687 -7.84765625 6.96484375 C-8.55792969 6.97644531 -9.26820313 6.98804688 -10 7 C-9.67 5.02 -9.34 3.04 -9 1 C-5.66660588 -0.11113137 -3.49519344 -0.34951934 0 0 Z " fill="#96A0A5" transform="translate(315,286)"/>
<path d="M0 0 C6.27 0.33 12.54 0.66 19 1 C19.33 3.64 19.66 6.28 20 9 C18 11 18 11 14.0859375 11.1953125 C12.51550649 11.18200376 10.94513779 11.15813602 9.375 11.125 C8.57320313 11.11597656 7.77140625 11.10695312 6.9453125 11.09765625 C4.96341477 11.07406223 2.98167019 11.03819065 1 11 C0.67 10.34 0.34 9.68 0 9 C5.94 9 11.88 9 18 9 C18 7.02 18 5.04 18 3 C12.06 3 6.12 3 0 3 C0 2.01 0 1.02 0 0 Z " fill="#7DE3FA" transform="translate(377,244)"/>
<path d="M0 0 C0.66 0.33 1.32 0.66 2 1 C2.33 2.32 2.66 3.64 3 5 C0.03 5 -2.94 5 -6 5 C-6.33 7.97 -6.66 10.94 -7 14 C-8.32 14.33 -9.64 14.66 -11 15 C-12.05201472 10.70427322 -12.34785332 7.97537142 -10.1875 4.125 C-7.03562361 -0.37768056 -5.30864813 -0.22119367 0 0 Z " fill="#99A3A8" transform="translate(336,286)"/>
<path d="M0 0 C1.4540625 0.0309375 1.4540625 0.0309375 2.9375 0.0625 C3.5975 1.3825 4.2575 2.7025 4.9375 4.0625 C3.9475 4.0625 2.9575 4.0625 1.9375 4.0625 C1.9375 3.4025 1.9375 2.7425 1.9375 2.0625 C-1.18035113 2.70894661 -1.18035113 2.70894661 -2.0625 5.0625 C-1.505625 5.165625 -0.94875 5.26875 -0.375 5.375 C2.50008564 6.22975519 4.56295297 7.21563009 6.9375 9.0625 C7.25 11.75 7.25 11.75 6.9375 14.0625 C4.9575 15.0525 4.9575 15.0525 2.9375 16.0625 C2.875625 15.11375 2.81375 14.165 2.75 13.1875 C2.481875 12.15625 2.21375 11.125 1.9375 10.0625 C-0.49135788 8.67391128 -0.49135788 8.67391128 -3.0625 8.0625 C-4.0625 7.0625 -4.0625 7.0625 -4.1875 4.0625 C-4.02164894 0.08207447 -4.02164894 0.08207447 0 0 Z " fill="#A6AEB3" transform="translate(447.0625,287.9375)"/>
<path d="M0 0 C1.9375 0.3125 1.9375 0.3125 4 1 C4.33 1.99 4.66 2.98 5 4 C3.6875 6.5 3.6875 6.5 2 9 C1.01 10.485 1.01 10.485 0 12 C-0.66 12 -1.32 12 -2 12 C-2 13.98 -2 15.96 -2 18 C-2.66 18 -3.32 18 -4 18 C-4.66 14.37 -5.32 10.74 -6 7 C-4.02 7.99 -4.02 7.99 -2 9 C-2.226875 8.443125 -2.45375 7.88625 -2.6875 7.3125 C-3.12449065 4.07876916 -1.81198627 2.60926022 0 0 Z " fill="#9DA7AC" transform="translate(370,286)"/>
<path d="M0 0 C2.71835171 1.77008949 3.64758872 2.73425729 4.6875 5.75 C3.73875 5.09 2.79 4.43 1.8125 3.75 C-2.7182101 1.14784064 -7.20424411 1.01413734 -12.3125 1.75 C-16.10331858 3.19640637 -17.64517017 5.20716412 -19.55859375 8.81640625 C-21.3407444 13.38720714 -20.43657572 18.11318767 -19.3125 22.75 C-21.3125 21.75 -21.3125 21.75 -22.5 19.625 C-23.8631033 14.80171139 -22.85946233 11.04282004 -20.9375 6.5 C-18.76138168 2.81733822 -17.51195386 1.26794598 -13.5625 -0.4375 C-8.5711376 -1.6853406 -4.84815121 -1.82949102 0 0 Z " fill="#CDF1FB" transform="translate(459.3125,223.25)"/>
<path d="M0 0 C2.64 0 5.28 0 8 0 C8.66 1.32 9.32 2.64 10 4 C9.01 5.485 9.01 5.485 8 7 C7.67 6.01 7.34 5.02 7 4 C5.68 4 4.36 4 3 4 C2.67 5.32 2.34 6.64 2 8 C3.32 8.33 4.64 8.66 6 9 C4.68 9 3.36 9 2 9 C2 11.31 2 13.62 2 16 C1.34 16 0.68 16 0 16 C0 10.72 0 5.44 0 0 Z " fill="#6F7D85" transform="translate(347,288)"/>
<path d="M0 0 C2.125 0.375 2.125 0.375 4 1 C3.64393309 3.58148508 3.16671807 4.82045747 1.375 6.75 C-1.96624421 8.50854958 -4.27860636 8.46517421 -8 8 C-10.4375 6 -10.4375 6 -12 4 C-11.01 4.33 -10.02 4.66 -9 5 C-6.66700175 5.03954234 -4.33291811 5.04401732 -2 5 C-2 4.01 -2 3.02 -2 2 C-1.34 1.34 -0.68 0.68 0 0 Z " fill="#C8CDD0" transform="translate(316,298)"/>
<path d="M0 0 C0.66 0 1.32 0 2 0 C2.226875 0.721875 2.45375 1.44375 2.6875 2.1875 C4.24831013 5.53209313 6.3031287 7.51603959 9 10 C8.67 10.66 8.34 11.32 8 12 C3.25 11.25 3.25 11.25 1 9 C0.33203125 7.08984375 0.33203125 7.08984375 -0.1875 4.9375 C-0.36667969 4.22464844 -0.54585938 3.51179688 -0.73046875 2.77734375 C-0.81941406 2.19082031 -0.90835937 1.60429687 -1 1 C-0.67 0.67 -0.34 0.34 0 0 Z " fill="#77848C" transform="translate(396,294)"/>
<path d="M0 0 C0.66 0.33 1.32 0.66 2 1 C1.649375 1.556875 1.29875 2.11375 0.9375 2.6875 C-0.21845993 5.53886783 0.19032562 7.08517222 1 10 C2.98 10.66 4.96 11.32 7 12 C6.34 13.32 5.68 14.64 5 16 C6.98 16 8.96 16 11 16 C11 16.33 11 16.66 11 17 C7.13391023 17.30322273 4.62686446 17.31343223 1.125 15.5625 C-1.81765262 12.01400713 -2.31330527 8.56301006 -2 4 C-1.00390625 1.71875 -1.00390625 1.71875 0 0 Z " fill="#CACFD2" transform="translate(325,289)"/>
<path d="M0 0 C1.65 0.33 3.3 0.66 5 1 C3.94685471 3.26831293 2.96477715 5.04044105 1.3125 6.9375 C-0.29365667 8.98432219 -0.29365667 8.98432219 0.3125 11.75 C0.539375 12.4925 0.76625 13.235 1 14 C0.01 13.34 -0.98 12.68 -2 12 C-2 10.68 -2 9.36 -2 8 C-2.66 7.67 -3.32 7.34 -4 7 C-3.34 6.34 -2.68 5.68 -2 5 C-1.29289322 3.35008418 -0.62056011 1.68437744 0 0 Z " fill="#A3ABB0" transform="translate(400,286)"/>
<path d="M0 0 C2.89932357 2.39509338 3.50168276 4.31245243 4 8 C0.54754176 10.30163882 -0.94738713 10.34490322 -5 10 C-5.66 9.34 -6.32 8.68 -7 8 C-7 7.01 -7 6.02 -7 5 C-7.66 5 -8.32 5 -9 5 C-9 4.34 -9 3.68 -9 3 C-7.02 3.99 -7.02 3.99 -5 5 C-5 5.66 -5 6.32 -5 7 C-3.02 7 -1.04 7 1 7 C0.67 4.69 0.34 2.38 0 0 Z " fill="#90E4FA" transform="translate(464,229)"/>
<path d="M0 0 C1.22589844 0.01353516 1.22589844 0.01353516 2.4765625 0.02734375 C3.41628906 0.04474609 3.41628906 0.04474609 4.375 0.0625 C4.375 1.3825 4.375 2.7025 4.375 4.0625 C4.045 3.4025 3.715 2.7425 3.375 2.0625 C0.405 2.0625 -2.565 2.0625 -5.625 2.0625 C-6.285 3.3825 -6.945 4.7025 -7.625 6.0625 C-8.63760441 7.50008346 -9.68012648 8.9170128 -10.75 10.3125 C-11.28882813 11.01890625 -11.82765625 11.7253125 -12.3828125 12.453125 C-12.79273438 12.98421875 -13.20265625 13.5153125 -13.625 14.0625 C-13.625 10.26496301 -12.43629297 8.99831015 -10.25 5.9375 C-9.31027344 4.60332031 -9.31027344 4.60332031 -8.3515625 3.2421875 C-5.73160602 -0.06535936 -4.0425443 -0.05775063 0 0 Z " fill="#DCF4FC" transform="translate(361.625,222.9375)"/>
<path d="M0 0 C0.66 0 1.32 0 2 0 C2 5.94 2 11.88 2 18 C-1 16 -1 16 -1.58203125 13.3203125 C-1.65808594 12.26585937 -1.73414063 11.21140625 -1.8125 10.125 C-1.94591797 8.55105469 -1.94591797 8.55105469 -2.08203125 6.9453125 C-1.99958184 3.98498619 -1.55056325 2.47850651 0 0 Z " fill="#B4B9DE" transform="translate(297,229)"/>
<path d="M0 0 C4.19522169 1.52041591 5.724465 4.19000456 8.0625 7.875 C10.28005568 11.33966472 12.47846524 14.74792713 15 18 C14.67 18.66 14.34 19.32 14 20 C8.574404 13.58898592 3.75834739 7.51669477 0 0 Z " fill="#D7DBEC" transform="translate(108,289)"/>
<path d="M0 0 C-1.12451727 2.9719385 -2.22293791 5.33440687 -4 8 C-4.33 6.68 -4.66 5.36 -5 4 C-5.99 5.32 -6.98 6.64 -8 8 C-8.33 7.01 -8.66 6.02 -9 5 C-8.34 5 -7.68 5 -7 5 C-6.87625 4.195625 -6.7525 3.39125 -6.625 2.5625 C-6.41875 1.716875 -6.2125 0.87125 -6 0 C-3.50907189 -1.24546405 -2.58919267 -0.7767578 0 0 Z " fill="#C2C8CB" transform="translate(439,287)"/>
<path d="M0 0 C0.66 0 1.32 0 2 0 C1.67 4.29 1.34 8.58 1 13 C0.34 13 -0.32 13 -1 13 C-1.66 9.37 -2.32 5.74 -3 2 C-1.02 2.99 -1.02 2.99 1 4 C0.67 2.68 0.34 1.36 0 0 Z " fill="#748087" transform="translate(367,291)"/>
<path d="M0 0 C1.4540625 0.0309375 1.4540625 0.0309375 2.9375 0.0625 C3.5975 1.3825 4.2575 2.7025 4.9375 4.0625 C3.9475 4.0625 2.9575 4.0625 1.9375 4.0625 C1.9375 3.4025 1.9375 2.7425 1.9375 2.0625 C0.9475 2.3925 -0.0425 2.7225 -1.0625 3.0625 C-1.0625 4.7125 -1.0625 6.3625 -1.0625 8.0625 C-2.0525 7.7325 -3.0425 7.4025 -4.0625 7.0625 C-4.10504356 5.06295254 -4.10330783 3.06208364 -4.0625 1.0625 C-3.0625 0.0625 -3.0625 0.0625 0 0 Z " fill="#7B888F" transform="translate(447.0625,287.9375)"/>
<path d="M0 0 C3 3 3 3 4 6 C3.34 6 2.68 6 2 6 C1.95101562 6.85464844 1.90203125 7.70929688 1.8515625 8.58984375 C1.77679688 9.69457031 1.70203125 10.79929687 1.625 11.9375 C1.52058594 13.59072266 1.52058594 13.59072266 1.4140625 15.27734375 C1.27742188 16.17582031 1.14078125 17.07429688 1 18 C0.34 18.33 -0.32 18.66 -1 19 C-0.67 12.73 -0.34 6.46 0 0 Z " fill="#A7AED4" transform="translate(85,255)"/>
<path d="M0 0 C2 1.4375 2 1.4375 4 4 C4.58597762 8.2159948 4.34398213 11.9680536 3 16 C2.34 16 1.68 16 1 16 C1.01160156 15.43152344 1.02320313 14.86304688 1.03515625 14.27734375 C1.09223194 9.39329516 0.81956772 4.81496035 0 0 Z " fill="#9298C6" transform="translate(324,251)"/>
<path d="M0 0 C3.3 0.33 6.6 0.66 10 1 C10 1.33 10 1.66 10 2 C7.36 2 4.72 2 2 2 C2.33 5.3 2.66 8.6 3 12 C0.3534665 9.3534665 -0.59941997 6.43778736 -2 3 C-1.34 3 -0.68 3 0 3 C0 2.01 0 1.02 0 0 Z " fill="#B9BED9" transform="translate(294,257)"/>
<path d="M0 0 C0.33 0.66 0.66 1.32 1 2 C-1.31 2 -3.62 2 -6 2 C-5.34 5.3 -4.68 8.6 -4 12 C-6.0625 10.4375 -6.0625 10.4375 -8 8 C-7.875 4.3125 -7.875 4.3125 -7 1 C-4.53721199 -0.231394 -2.7204945 -0.07159196 0 0 Z " fill="#DBF5FC" transform="translate(443,258)"/>
<path d="M0 0 C0.66 0.33 1.32 0.66 2 1 C1.01 1.33 0.02 1.66 -1 2 C-1.309375 2.66 -1.61875 3.32 -1.9375 4 C-2.288125 4.66 -2.63875 5.32 -3 6 C-4.33333333 6.33333333 -5.66666667 6.66666667 -7 7 C-8.28436734 8.9837767 -8.28436734 8.9837767 -9 11 C-9 8 -9 8 -7 5 C-6.34 5 -5.68 5 -5 5 C-5 4.34 -5 3.68 -5 3 C-2.625 1.3125 -2.625 1.3125 0 0 Z " fill="#BCC1DE" transform="translate(255,225)"/>
<path d="M0 0 C0.66 0.33 1.32 0.66 2 1 C2 1.99 2 2.98 2 4 C0.0625 4.5625 0.0625 4.5625 -2 5 C-2.33 4.67 -2.66 4.34 -3 4 C-4.99958364 3.95919217 -7.00045254 3.95745644 -9 4 C-9.33 3.01 -9.66 2.02 -10 1 C-3.375 0.875 -3.375 0.875 0 2 C0 1.34 0 0.68 0 0 Z " fill="#C3C7C9" transform="translate(318,289)"/>
<path d="M0 0 C1.98 0.66 3.96 1.32 6 2 C6 2.99 6 3.98 6 5 C3.36 5 0.72 5 -2 5 C-1.34 3.35 -0.68 1.7 0 0 Z " fill="#7F9096" transform="translate(332,300)"/>
<path d="M0 0 C1.98 0.66 3.96 1.32 6 2 C6 1.34 6 0.68 6 0 C6.66 0 7.32 0 8 0 C8.66 1.32 9.32 2.64 10 4 C7.36 4 4.72 4 2 4 C1.34 2.68 0.68 1.36 0 0 Z " fill="#707C8B" transform="translate(305,300)"/>
<path d="M0 0 C-0.33 1.65 -0.66 3.3 -1 5 C-1.66 4.01 -2.32 3.02 -3 2 C-5.56282742 1.27034634 -5.56282742 1.27034634 -8 1 C-8 0.34 -8 -0.32 -8 -1 C-4.59745511 -2.2151946 -3.06748874 -1.86240388 0 0 Z " fill="#78838A" transform="translate(357,290)"/>
<path d="M0 0 C5.80160774 1.48701402 10.57763179 2.72504406 15 7 C3.7939577 4.96253776 3.7939577 4.96253776 1.2890625 1.92578125 C0.86367188 1.29027344 0.43828125 0.65476563 0 0 Z " fill="#ADE9FA" transform="translate(442,248)"/>
<path d="M0 0 C1.32 0 2.64 0 4 0 C2.34784004 3.57967992 0.26875648 6.77982952 -2 10 C-2.33 10 -2.66 10 -3 10 C-3 8.35 -3 6.7 -3 5 C-2.01 5 -1.02 5 0 5 C0 3.35 0 1.7 0 0 Z " fill="#74D3F6" transform="translate(171,195)"/>
<path d="M0 0 C2.475 0.495 2.475 0.495 5 1 C5 2.65 5 4.3 5 6 C3.35 5.67 1.7 5.34 0 5 C0.66 4.01 1.32 3.02 2 2 C1.34 1.34 0.68 0.68 0 0 Z " fill="#B4C0C3" transform="translate(445,297)"/>
<path d="M0 0 C1.67542976 0.28604898 3.34385343 0.61781233 5 1 C3.84826645 3.46800047 2.95216435 5.04783565 1 7 C0.34 5.02 -0.32 3.04 -1 1 C-0.67 0.67 -0.34 0.34 0 0 Z " fill="#C6CCCF" transform="translate(400,286)"/>
<path d="M0 0 C2.97 0 5.94 0 9 0 C9 1.32 9 2.64 9 4 C8.67 3.34 8.34 2.68 8 2 C5.36 2 2.72 2 0 2 C0 1.34 0 0.68 0 0 Z " fill="#AFE7F9" transform="translate(357,223)"/>
<path d="M0 0 C7.26 0 14.52 0 22 0 C22 0.33 22 0.66 22 1 C14.74 1 7.48 1 0 1 C0 0.67 0 0.34 0 0 Z " fill="#FFFFFF" transform="translate(156,185)"/>
<path d="M0 0 C1.32 1.32 2.64 2.64 4 4 C3.67 4.66 3.34 5.32 3 6 C0.625 5.75 0.625 5.75 -2 5 C-3.3125 2.9375 -3.3125 2.9375 -4 1 C-1.525 1.99 -1.525 1.99 1 3 C0.67 2.01 0.34 1.02 0 0 Z " fill="#DBDEE0" transform="translate(401,300)"/>
<path d="M0 0 C2.875 -0.125 2.875 -0.125 6 0 C6.66 0.66 7.32 1.32 8 2 C7.67 2.99 7.34 3.98 7 5 C6.34 4.34 5.68 3.68 5 3 C2.41645782 2.83312552 2.41645782 2.83312552 0 3 C0 2.01 0 1.02 0 0 Z " fill="#C1C4C6" transform="translate(330,290)"/>
<path d="M0 0 C1.9375 0.3125 1.9375 0.3125 4 1 C4.33 1.99 4.66 2.98 5 4 C4.01 4.66 3.02 5.32 2 6 C1.67 5.01 1.34 4.02 1 3 C0.67 3.66 0.34 4.32 0 5 C-0.66 5 -1.32 5 -2 5 C-1.34 3.35 -0.68 1.7 0 0 Z " fill="#CED3D5" transform="translate(370,286)"/>
<path d="M0 0 C2.01822917 0.29296875 4.03645833 0.5859375 6.0546875 0.87890625 C8.08140667 1.1684297 8.08140667 1.1684297 10 0 C9.67 0.99 9.34 1.98 9 3 C8.34 3 7.68 3 7 3 C7 3.66 7 4.32 7 5 C3.34683329 3.75023244 2.21934164 3.32901247 0 0 Z " fill="#BCC0DE" transform="translate(63,307)"/>
<path d="M0 0 C0.99 1.32 1.98 2.64 3 4 C2 5 2 5 -0.50390625 5.09765625 C-2.01791016 5.08025391 -2.01791016 5.08025391 -3.5625 5.0625 C-4.57441406 5.05347656 -5.58632813 5.04445313 -6.62890625 5.03515625 C-7.41136719 5.02355469 -8.19382812 5.01195312 -9 5 C-8.67 4.34 -8.34 3.68 -8 3 C-5.36 3.33 -2.72 3.66 0 4 C0 2.68 0 1.36 0 0 Z " fill="#AFE6F9" transform="translate(364,271)"/>
<path d="M0 0 C1 3 1 3 0 6 C-1.65 6.33 -3.3 6.66 -5 7 C-5 5 -5 5 -2.5 2.375 C-1.675 1.59125 -0.85 0.8075 0 0 Z " fill="#9BA2C7" transform="translate(203,239)"/>
<path d="M0 0 C2 2 2 2 2.125 4.625 C2.08375 5.40875 2.0425 6.1925 2 7 C1.01 7 0.02 7 -1 7 C-1.04254356 5.00045254 -1.04080783 2.99958364 -1 1 C-0.67 0.67 -0.34 0.34 0 0 Z " fill="#ACB4B8" transform="translate(303,292)"/>
<path d="M0 0 C0.66 0.33 1.32 0.66 2 1 C-0.475 4.465 -0.475 4.465 -3 8 C-3.33 6.68 -3.66 5.36 -4 4 C-2.0625 1.75 -2.0625 1.75 0 0 Z " fill="#A8E9F9" transform="translate(443,224)"/>
<path d="M0 0 C0.33 0 0.66 0 1 0 C1 5.28 1 10.56 1 16 C0.67 16 0.34 16 0 16 C0 10.72 0 5.44 0 0 Z " fill="#FFFFFF" transform="translate(344,288)"/>
<path d="M0 0 C2.64 0 5.28 0 8 0 C8 0.33 8 0.66 8 1 C5.36 1 2.72 1 0 1 C0 0.67 0 0.34 0 0 Z " fill="#0000FF" transform="translate(317,240)"/>
<path d="" fill="#FFFFFF" transform="translate(0,0)"/>
<path d="" fill="#FFFFFF" transform="translate(0,0)"/>
<path d="" fill="#FFFFFF" transform="translate(0,0)"/>
<path d="" fill="#E7E7FF" transform="translate(0,0)"/>
<path d="" fill="#000000" transform="translate(0,0)"/>
<path d="" fill="#FFFFFF" transform="translate(0,0)"/>
<path d="" fill="#FFFFFF" transform="translate(0,0)"/>
</svg>
